/* XPM */
static char *_e2e951dbccd4d68b7b96e96afc2dd0cXlCtmYYKirz7BGtd[] = {
/* columns rows colors chars-per-pixel */
"129 133 28 1 ",
"  c None",
". c black",
"X c #39141A",
"o c #1C222B",
"O c gray14",
"+ c #242C38",
"@ c #3A3A3A",
"# c gray24",
"$ c #4E1B23",
"% c #453B34",
"& c #60212B",
"* c #7A2A37",
"= c #2A3341",
"- c #313C4C",
"; c #374355",
": c #3C495D",
"> c #4C4C4C",
", c gray37",
"< c #606060",
"1 c gray50",
"2 c #862E3C",
"3 c #9C8474",
"4 c #9D9D9D",
"5 c gray72",
"6 c #CAAA96",
"7 c #EBC6AE",
"8 c #FFD7BD",
"9 c gray82",
/* pixels */
"                                                                                                                                 ",
"                                                                                                                                 ",
"                                                                                                                                 ",
"                                                                                                                                 ",
"                                                                                                                                 ",
"                                                                                                                                 ",
"                                                                                                                                 ",
"                                                                                                                                 ",
"                                                                                                                                 ",
"                                                                                                                                 ",
"                                                                                                                                 ",
"                                                                                                                                 ",
"                                              ........................                                                           ",
"                                              ........................                                                           ",
"                                              ........................                                                           ",
"                                              ........................                                                           ",
"                                      ........OOOO,,,,@@@@OOOO>>>>,,,,....                                                       ",
"                                      ........OOOO,,,,@@@@OOOO>>>>,,,,....                                                       ",
"                                      ........OOOO,,,,@@@@OOOO>>>>,,,,....                                                       ",
"                                      ........OOOO,,,,@@@@OOOO>>>>,,,,....                                                       ",
"                                  %%%%............@@@@OOOOOOOO@@@@>>>>....                                                       ",
"                                  %%%%............@@@@OOOOOOOO@@@@>>>>....                                                       ",
"                                  %%%%............@@@@OOOOOOOO@@@@>>>>....                                                       ",
"                                  %%%%............@@@@OOOOOOOO@@@@>>>>....                                                       ",
"                              %%%%33336666........OOOOOOOOOOOO@@@@,,,,....                                                       ",
"                              %%%%33336666........OOOOOOOOOOOO@@@@,,,,....                                                       ",
"                              %%%%33336666........OOOOOOOOOOOO@@@@,,,,....                                                       ",
"                              %%%%33336666........OOOOOOOOOOOO@@@@,,,,....                                                       ",
"                          %%%%3333666666666666....OOOOOOOOOOOO@@@@>>>>....                                                       ",
"                          %%%%3333666666666666....OOOOOOOOOOOO@@@@>>>>....                                                       ",
"                          %%%%3333666666666666....OOOOOOOOOOOO@@@@>>>>....                                                       ",
"                          %%%%3333666666666666....OOOOOOOOOOOO@@@@>>>>....                                                       ",
"                      %%%%333366666666777766666666........OOOO........                                                           ",
"                      %%%%333366666666777766666666........OOOO........                                                           ",
"                      %%%%333366666666777766666666........OOOO........                                                           ",
"                      %%%%333366666666777766666666........OOOO........                                                           ",
"                      %%%%333366667777888877776666%%%%........                                                                   ",
"                      %%%%333366667777888877776666%%%%........                                                                   ",
"                      %%%%333366667777888877776666%%%%........                                                                   ",
"                      %%%%333366667777888877776666%%%%........                                                                   ",
"                  %%%%3333666677778888777766663333XXXXXXXXXXXXXXXXXXXXXXXX                                                       ",
"                  %%%%3333666677778888777766663333XXXXXXXXXXXXXXXXXXXXXXXX                                                       ",
"                  %%%%3333666677778888777766663333XXXXXXXXXXXXXXXXXXXXXXXX                                                       ",
"                  %%%%3333666677778888777766663333XXXXXXXXXXXXXXXXXXXXXXXX                                                       ",
"                  %%%%333366667777777766663333XXXX222222222222222222222222XXXX                                                   ",
"                  %%%%333366667777777766663333XXXX222222222222222222222222XXXX                                                   ",
"                  %%%%333366667777777766663333XXXX222222222222222222222222XXXX                                                   ",
"                  %%%%333366667777777766663333XXXX222222222222222222222222XXXX                                                   ",
"                  %%%%33337777888866663333XXXX********************************XXXX....%%%%                                       ",
"                  %%%%33337777888866663333XXXX********************************XXXX....%%%%                                       ",
"                  %%%%33337777888866663333XXXX********************************XXXX....%%%%                                       ",
"                  %%%%33337777888866663333XXXX********************************XXXX....%%%%                                       ",
"              %%%%333366667777777766663333XXXX****$$$$$$$$$$$$$$$$$$$$$$$$****XXXX....3333%%%%%%%%                               ",
"              %%%%333366667777777766663333XXXX****$$$$$$$$$$$$$$$$$$$$$$$$****XXXX....3333%%%%%%%%                               ",
"              %%%%333366667777777766663333XXXX****$$$$$$$$$$$$$$$$$$$$$$$$****XXXX....3333%%%%%%%%                               ",
"              %%%%333366667777777766663333XXXX****$$$$$$$$$$$$$$$$$$$$$$$$****XXXX....3333%%%%%%%%                               ",
"              %%%%333366667777888866663333XXXXXXXX<<<<XXXX11111111XXXX<<<<XXXXXXXX....666633333333%%%%                           ",
"              %%%%333366667777888866663333XXXXXXXX<<<<XXXX11111111XXXX<<<<XXXXXXXX....666633333333%%%%                           ",
"              %%%%333366667777888866663333XXXXXXXX<<<<XXXX11111111XXXX<<<<XXXXXXXX....666633333333%%%%                           ",
"              %%%%333366667777888866663333XXXXXXXX<<<<XXXX11111111XXXX<<<<XXXXXXXX....666633333333%%%%                           ",
"              %%%%333366667777777766663333....$$$$1111&&&&&&&&&&&&&&&&1111$$$$........7777666666663333%%%%                       ",
"              %%%%333366667777777766663333....$$$$1111&&&&&&&&&&&&&&&&1111$$$$........7777666666663333%%%%                       ",
"              %%%%333366667777777766663333....$$$$1111&&&&&&&&&&&&&&&&1111$$$$........7777666666663333%%%%                       ",
"              %%%%333366667777777766663333....$$$$1111&&&&&&&&&&&&&&&&1111$$$$........7777666666663333%%%%                       ",
"          %%%%333333336666555555555555....$$$$&&&&&&&&1111444444441111&&&&&&&&$$$$....33338888777766663333%%%%                   ",
"          %%%%333333336666555555555555....$$$$&&&&&&&&1111444444441111&&&&&&&&$$$$....33338888777766663333%%%%                   ",
"          %%%%333333336666555555555555....$$$$&&&&&&&&1111444444441111&&&&&&&&$$$$....33338888777766663333%%%%                   ",
"          %%%%333333336666555555555555....$$$$&&&&&&&&1111444444441111&&&&&&&&$$$$....33338888777766663333%%%%                   ",
"          ####555555555555444444444444....$$$$&&&&************************&&&&$$$$....55555555555566663333%%%%                   ",
"          ####555555555555444444444444....$$$$&&&&************************&&&&$$$$....55555555555566663333%%%%                   ",
"          ####555555555555444444444444....$$$$&&&&************************&&&&$$$$....55555555555566663333%%%%                   ",
"          ####555555555555444444444444....$$$$&&&&************************&&&&$$$$....55555555555566663333%%%%                   ",
"          ####111144444444555555554444....$$$$&&&&********22222222********&&&&$$$$....111144444444555555553333####               ",
"          ####111144444444555555554444....$$$$&&&&********22222222********&&&&$$$$....111144444444555555553333####               ",
"          ####111144444444555555554444....$$$$&&&&********22222222********&&&&$$$$....111144444444555555553333####               ",
"          ####111144444444555555554444....$$$$&&&&********22222222********&&&&$$$$....111144444444555555553333####               ",
"          ####111144444444555555554444XXXX$$$$&&&&********22222222********&&&&$$$$XXXX444444444444444444445555####               ",
"          ####111144444444555555554444XXXX$$$$&&&&********22222222********&&&&$$$$XXXX444444444444444444445555####               ",
"          ####111144444444555555554444XXXX$$$$&&&&********22222222********&&&&$$$$XXXX444444444444444444445555####               ",
"          ####111144444444555555554444XXXX$$$$&&&&********22222222********&&&&$$$$XXXX444444444444444444445555####               ",
"          ####111144444444555555555555XXXX$$$$&&&&************************&&&&$$$$XXXX444444444444444444441111####               ",
"          ####111144444444555555555555XXXX$$$$&&&&************************&&&&$$$$XXXX444444444444444444441111####               ",
"          ####111144444444555555555555XXXX$$$$&&&&************************&&&&$$$$XXXX444444444444444444441111####               ",
"          ####111144444444555555555555XXXX$$$$&&&&************************&&&&$$$$XXXX444444444444444444441111####               ",
"          ####111144444444555599995555....$$$$&&&&&&&&****************&&&&&&&&$$$$....5555555555554444444444441111####           ",
"          ####111144444444555599995555....$$$$&&&&&&&&****************&&&&&&&&$$$$....5555555555554444444444441111####           ",
"          ####111144444444555599995555....$$$$&&&&&&&&****************&&&&&&&&$$$$....5555555555554444444444441111####           ",
"          ####111144444444555599995555....$$$$&&&&&&&&****************&&&&&&&&$$$$....5555555555554444444444441111####           ",
"              ####11114444555555559999::::....$$$$&&&&&&&&&&&&&&&&&&&&&&&&$$$$....::::9999555555555555444444441111####           ",
"              ####11114444555555559999::::....$$$$&&&&&&&&&&&&&&&&&&&&&&&&$$$$....::::9999555555555555444444441111####           ",
"              ####11114444555555559999::::....$$$$&&&&&&&&&&&&&&&&&&&&&&&&$$$$....::::9999555555555555444444441111####           ",
"              ####11114444555555559999::::....$$$$&&&&&&&&&&&&&&&&&&&&&&&&$$$$....::::9999555555555555444444441111####           ",
"              ####1111444444445555::::;;;;::::....$$$$$$$$$$$$$$$$$$$$$$$$....::::;;;;::::55555555555544444444####               ",
"              ####1111444444445555::::;;;;::::....$$$$$$$$$$$$$$$$$$$$$$$$....::::;;;;::::55555555555544444444####               ",
"              ####1111444444445555::::;;;;::::....$$$$$$$$$$$$$$$$$$$$$$$$....::::;;;;::::55555555555544444444####               ",
"              ####1111444444445555::::;;;;::::....$$$$$$$$$$$$$$$$$$$$$$$$....::::;;;;::::55555555555544444444####               ",
"                  ####111144444444::::--------::::........................::::--------::::44444444444444441111####               ",
"                  ####111144444444::::--------::::........................::::--------::::44444444444444441111####               ",
"                  ####111144444444::::--------::::........................::::--------::::44444444444444441111####               ",
"                  ####111144444444::::--------::::........................::::--------::::44444444444444441111####               ",
"                      ####1111::::----====--------::::::::::::::::::::::::--------====----::::444444441111####                   ",
"                      ####1111::::----====--------::::::::::::::::::::::::--------====----::::444444441111####                   ",
"                      ####1111::::----====--------::::::::::::::::::::::::--------====----::::444444441111####                   ",
"                      ####1111::::----====--------::::::::::::::::::::::::--------====----::::444444441111####                   ",
"                          ####::::----++++========================================++++----::::11111111####                       ",
"                          ####::::----++++========================================++++----::::11111111####                       ",
"                          ####::::----++++========================================++++----::::11111111####                       ",
"                          ####::::----++++========================================++++----::::11111111####                       ",
"                              oooooooooooo++++++++++++++++++++++++++++++++++++++++oooo++++++++########                           ",
"                              oooooooooooo++++++++++++++++++++++++++++++++++++++++oooo++++++++########                           ",
"                              oooooooooooo++++++++++++++++++++++++++++++++++++++++oooo++++++++########                           ",
"                              oooooooooooo++++++++++++++++++++++++++++++++++++++++oooo++++++++########                           ",
"                                      oooooooooooooooooooooooooooooooooooooooooooooooooooooooo                                   ",
"                                      oooooooooooooooooooooooooooooooooooooooooooooooooooooooo                                   ",
"                                      oooooooooooooooooooooooooooooooooooooooooooooooooooooooo                                   ",
"                                      oooooooooooooooooooooooooooooooooooooooooooooooooooooooo                                   ",
"                                                  oooooooooooooooooooooooooooooooooooo                                           ",
"                                                  oooooooooooooooooooooooooooooooooooo                                           ",
"                                                  oooooooooooooooooooooooooooooooooooo                                           ",
"                                                  oooooooooooooooooooooooooooooooooooo                                           ",
"                                                                                                                                 ",
"                                                                                                                                 ",
"                                                                                                                                 ",
"                                                                                                                                 ",
"                                                                                                                                 ",
"                                                                                                                                 ",
"                                                                                                                                 ",
"                                                                                                                                 ",
"                                                                                                                                 ",
"                                                                                                                                 ",
"                                                                                                                                 ",
"                                                                                                                                 ",
"                                                                                                                                 "
};
