/* XPM */
static char *c34b4b709a1f4c4f9b9a4aacf42b42c8OG4jctOEevHyYTow[] = {
/* columns rows colors chars-per-pixel */
"78 96 244 2 ",
"   c None",
".  c #0A0400",
"X  c #070901",
"o  c #0B0B00",
"O  c #0B0B0B",
"+  c #060409",
"@  c #120201",
"#  c #110D01",
"$  c #160C07",
"%  c #0F1109",
"&  c #141301",
"*  c #1C1B01",
"=  c #13130C",
"-  c #1A1807",
";  c #141313",
":  c #1B1B1B",
">  c #181918",
",  c #0F0F11",
"<  c #230C01",
"1  c #251805",
"2  c #371A05",
"3  c #261B15",
"4  c #1F2104",
"5  c #1F211D",
"6  c #242301",
"7  c #282501",
"8  c #2C2B01",
"9  c #25230C",
"0  c #29280B",
"q  c #352605",
"w  c #3C3B0A",
"e  c #353506",
"r  c #252519",
"t  c #352915",
"y  c #333313",
"u  c #3C3C14",
"i  c #3C3C1A",
"p  c #35341C",
"a  c #2D311A",
"s  c #1F1E23",
"d  c #232323",
"f  c #2C2C2B",
"g  c #252426",
"h  c #322E2A",
"j  c #33332D",
"k  c #353424",
"l  c #2E2E30",
"z  c #312F34",
"x  c #2F3335",
"c  c #333333",
"v  c #3C3C3C",
"b  c #363539",
"n  c #2D3025",
"m  c #202026",
"M  c #431901",
"N  c #43391B",
"B  c #583618",
"V  c #4F300E",
"C  c #63330D",
"Z  c #68340F",
"A  c #633713",
"S  c #483825",
"D  c #55392A",
"F  c #443E32",
"G  c #3E423E",
"H  c #3F4217",
"J  c #46460B",
"K  c #4C4B1C",
"L  c #464517",
"P  c #51491B",
"I  c #57571A",
"U  c #545311",
"Y  c #655D1F",
"T  c #666616",
"R  c #65651C",
"E  c #68661B",
"W  c #66681D",
"Q  c #6A6A1B",
"!  c #696915",
"~  c #73721B",
"^  c #78791C",
"/  c #4C4B22",
"(  c #484729",
")  c #5C5C2B",
"_  c #585728",
"`  c #42423D",
"'  c #454532",
"]  c #5C5D33",
"[  c #585839",
"{  c #534D2D",
"}  c #615D29",
"|  c #755939",
" . c #5F6228",
".. c #5F6136",
"X. c #656523",
"o. c #696623",
"O. c #696A23",
"+. c #64642B",
"@. c #6A6C2B",
"#. c #666829",
"$. c #716E21",
"%. c #787826",
"&. c #646433",
"*. c #64633B",
"=. c #6A6A35",
"-. c #716E3A",
";. c #797936",
":. c #6F7028",
">. c #3E3E41",
",. c #403F44",
"<. c #424343",
"1. c #4D4D4C",
"2. c #47464C",
"3. c #514D48",
"4. c #545346",
"5. c #525253",
"6. c #5A5A5A",
"7. c #4D4F50",
"8. c #605F5C",
"9. c #666446",
"0. c #726C47",
"q. c #7B7A46",
"w. c #64635A",
"e. c #767552",
"r. c #646464",
"t. c #6C6C6B",
"y. c #666667",
"u. c #71726D",
"i. c #727272",
"p. c #7D7E7D",
"a. c #6F6F6E",
"s. c #5E6353",
"d. c #895A38",
"f. c #807F29",
"g. c #93643C",
"h. c #8B6B3B",
"j. c #A06D3E",
"k. c #8D6446",
"l. c #926241",
"z. c #8D754E",
"x. c #A47346",
"c. c #A56F45",
"v. c #817E7D",
"b. c #7F812F",
"n. c #7F817E",
"m. c #87872B",
"M. c #9A9924",
"N. c #96952C",
"B. c #99962D",
"V. c #97982D",
"C. c #9A992D",
"Z. c #979725",
"A. c #8A8936",
"S. c #969534",
"D. c #999631",
"F. c #979832",
"G. c #9A9933",
"H. c #95953B",
"J. c #99963A",
"K. c #95993B",
"L. c #99983A",
"P. c #918E2F",
"I. c #A09E2D",
"U. c #A09D32",
"Y. c #9FA32C",
"T. c #A3A32C",
"R. c #A5A437",
"E. c #B0AE3A",
"W. c #B5B53B",
"Q. c #AEB333",
"!. c #9C9B1D",
"~. c #8B8A4C",
"^. c #8A8A44",
"/. c #949544",
"(. c #999543",
"). c #9A9A42",
"_. c #94944A",
"`. c #999A49",
"'. c #959452",
"]. c #959559",
"[. c #8D8D4E",
"{. c #A8A847",
"}. c #B2AE49",
"|. c #BCBA45",
" X c #B7B747",
".X c #AAA957",
"XX c #B9BA57",
"oX c #ADB157",
"OX c #85826D",
"+X c #979466",
"@X c #828278",
"#X c #92947E",
"$X c #B9B866",
"%X c #ACAA68",
"&X c #C1BB6D",
"*X c #BFC268",
"=X c #BCC15B",
"-X c #CCCA45",
";X c #CCCB4C",
":X c #C5C449",
">X c #C6C657",
",X c #D1CD4A",
"<X c #C6C664",
"1X c #C6C474",
"2X c #7E7E82",
"3X c #807E81",
"4X c #7F8180",
"5X c #818182",
"6X c #8D8D8D",
"7X c #86858B",
"8X c #8E908B",
"9X c #91918C",
"0X c #8E8E92",
"qX c #939393",
"wX c #9B9B9B",
"eX c #999897",
"rX c #928E8C",
"tX c #9DA29E",
"yX c #A3A299",
"uX c #A6A5A6",
"iX c #B1AEAD",
"pX c #B1B1A7",
"aX c #BEBEBD",
"sX c #B3B4B3",
"dX c #AFB0B1",
"fX c #9D9DA1",
"gX c #C1BEBD",
"hX c #BEC0BF",
"jX c #C2C1BA",
"kX c #BEBEC0",
"lX c #C3BFC0",
"zX c #BFC0C2",
"xX c #C1C2C2",
"cX c #CCCECE",
"vX c #CDD0CC",
"bX c #D7D7D7",
"nX c #D1D1CD",
"mX c #DEE0DD",
"MX c #E2E3DC",
"NX c #E2E3E2",
"BX c #EEEEEC",
"VX c #F8F9F9",
"CX c #F0F0EE",
"ZX c #DFE0E3",
/* pixels */
"                                                                                                                                                            ",
"                                                                                                                                                            ",
"                                                                                                                                                            ",
"                                                                                                      xX, O   ;                                             ",
"                                                                                                      zXs 1.6X8.                                            ",
"                                                                                                      jX; uXiXy.                                            ",
"                                                                                                      dXd cXnXy.  xX                                        ",
"                                                                                                      5Xg xXNXy.  aX                                        ",
"                                                                                                      2X; uXVXy.  uX                                        ",
"                                                                                                      5X  6XVXy.  p.                                        ",
"                                                                                                      5X  1.i.1.  5X                                        ",
"                                                                                                      @X+         5X                                        ",
"                                                                                                      5X  8.t.f   5X                                        ",
"                                                                                                      p., CX2X1.  p.                                        ",
"                                                                                                      5X  cXi.1.  kX                                        ",
"                                                                                                      p.  1.p.v                                             ",
"                                                                                                      5.+ . +   :                                           ",
"                                                                                                    9X  b 3Xt.6.> w.                                        ",
"                          2X<.v ` 1.lX                                                              >.  i.3Xt.y.r.  nX                                      ",
"                        1.  f <.,   ; iX                                            BX9X3.aX        >.  s $ z $ G   0X                                      ",
"                      nX  > r.y.r.b   `                                           iX      X 4.BX  NXy.. @ M S < . O ZX                                      ",
"                      aX  l v 8.r.t.d   jX                      xXiX@X5Xv.iXaXnX  rX  = r [ 9 k NX    . M z.B S . 8.                                        ",
"                      qXO c j v <.6.5.  n.        bX9X@X` '   . . . +       . . . . . & # e.%XI & +   . 2 k.B 2 . yX                                        ",
"                      5XO c c c c z c ; n.uXp.@Xk X     6 K K K K K K K / / / K / _ ' 9 # #X*XI X     - 2 d.B 2 @ rX                                        ",
"                      <.> c c c c c c ; l   .   & K :./.J.{.}.}.}.XXXXXXXXXX$XXXoX.X].H X [.$X%.. j F @ M g.C B 1 . NX                                      ",
"                        d c b 5 > > :   +   9 e.].`.K.R.XX|.|.|. XW.Q.Q.Q.Y.M.V.V.S._.8 X 0./.A.. @ 3 t l.g.C D N . r.                                      ",
"                    NX+   ,     +         . . 7 _.J.G.N.D.B.I.D.N.N.M.M.C.G.G.G.V.H.].& X 0.H._.# . < 2 M l.A B @   h                                       ",
"                    BX          O ,     .   . ) /.F.C.G.D.D.D.D.D.D.C.M.C.N.G.F.G./.q.o . 0./._.7 . @ D M l.A B 3 .                                         ",
"                        + c c c g O     X o @./.S.F.F.N.F.S.D.S.J.D.Z.C.C.C.G.G.F./...X . +X_._.0   . 2 M l.Z B 1 .                                         ",
"                          c j >     X o K ~./.S.F.V.N.G.L.L.F.S.J.S.D.G.B.D.F.F.K./.i . . -.;.;.* % . D k.l.A B <   d                                       ",
"                      ,   c O   X - I _././.L.G.C.M.C.G.L.P.A.H.J.J.S.S.P.%.~ ~ ~ :.1 o & &.+.) & 3 3 1 D N t t ; . ,.                                      ",
"                      v       0 ) './.K.F.F.S.D.C.N.C.F.(.U J %.E E E T E E o.X.R +.a   / &.&.* X   + . . @ . .   + i.                                      ",
"                      a.    N '.`.S.D.G.V.N.D.F.J.H.S.U 8 ( 7 &.*.*.&.&.&.&.&.&.&./ - 9 &.+.N X       j y.3.h j     dX                                      ",
"                  mXx   X 8 _.H.F.C.V.C.C.C.N.F.H.f.f.+.. . X p . . & * 1 - - 4 &   + * ..] -         f i.eXv     O                                         ",
"                  5X    4 A.).G.D.G.C.C.C.N.G.P.Q O.+.u   X   X                         & X     s 5X  v i.qXf f   qX                                        ",
"                  p.X # ^.oXG.D.D.N.C.C.C.G.J.~ T N 7 - o   +     <.<.G <.v <.,.<.,         + x nXjX  2.i.7X: j   xX                                        ",
"                BX= X ) {. XB.F.G.B.B.D.F.H.;.) o   X     m i.dX                  nX,   ; 5.wX        c i.p.: b   xX                                        ",
"                @X  w `.:XT.C.G.S.J.(.(._.@.&.*           dX                                          b a.5X; s   aX                                        ",
"                & - A. XW.C.N.L.(.'.q.N - X     X   X   c                                             v i.p.: c   kX                                        ",
"              vX  =.}.>XR.N.H./.+.8 .     X X X     X , mX                                            1.i.i.f f   7X                                        ",
"              8X& _.XX>XR.{.q.6 X   X # w :.^.;.&     vX    nX5X2XfXjX                                2.0Xi.v 5   p.                                        ",
"              OXw /.XX>X*X=.  X   # _ _.`.L.F.K.0.o   hXuXj   X   X   & [ yX                          c eXi.7.c   5X                                        ",
"              w.K _.oX.XL X X X J A.{.oX>X>XW.).].k   X   + & K b.'.;._ 1   = rX                      c eX5X6.    p.                                        ",
"              ' P '.~.7 .   & q.oX<X>X>X{.R.}.XX-.o X   7  .]._./.F.G.J.[.A.N . 9 nX                  b eXp.x ;   5X                                        ",
"              9.e [.- . . 8 `.=X>X XR.V.C.S._.N . . 6 L ;./.(.S.U.E.|.|.XX}.J.;.7 X yX              + b eX4X: c   t.                                        ",
"              v.& 0 . . w $X=XT.M.V.V.F.F.`.J . o ] './.H.G.G.C.E.:X,X-X,X;X:XR._.w   yX          xX> j wXp.> c   <.                                        ",
"              u.+     w $X}.N.C.Z.N.V.S.H. .X 1 ;.(.H.J.J.D.C.M.M.T.-X-X-X,X,X:XS._.w & nX        zX> b eX6X> c   v                                         ",
"            dX    X 7 %X XZ.B.G.C.N.N.K.;.& 4 ~./.B.G.D.B.G.N.N.M.M.W.,X-X-X-X,XE.L._.w (         jX> c eX0X+ c   i.                                        ",
"            3X  + . ^.<XG.C.C.C.C.V.F./.8 4 ~.H.S.F.C.C.C.C.B.B.C.C.Z.-X-X-X-X-X;XI.S.^.& yX      aX> c wX0X+ x + p.                                        ",
"            7.+   0 {.|.N.C.N.V.C.V.S.W & ~.H.G.G.F.V.V.M.C.D.D.C.C.C.I.:X-X,X;X-X:XB.(.} p       jX> c qX0X+ ;   0X                                        ",
"            >.  . / L.M.D.G.V.V.C.K._.- :./.L.G.F.V.V.V.C.C.G.D.C.Z.B.C.I.W.;X;X;X:XR.(.'.1 jX    lX: b wX0X  : : zX                                        ",
"            y.  . 0.J.C.B.D.N.G.C.L.I e ).S.N.C.C.V.V.C.B.B.D.D.C.C.I.Z.N.I.M.M.M.N.B.S./.U t.    kX: 7.wX0X: 3 O x 4XmX                                    ",
"            BX5   / ).C.N.F.B.D.J./.6 :.H.D.B.I.C.C.G.B.B.D.D.B.C.N.B.N.D.N.B.C.C.C.N.G.S.A.'     zX> 2.fX0Xg 3 X X   , NX                                  ",
"            tX5 . 7 (.N.F.C.B.D.L.A.- '.J.P.B.B.B.V.B.D.D.C.C.C.B.C.C.G.D.D.D.B.V.N.C.G.D./.1     dXg x eXfXh g   r.    ZX                                  ",
"          tX  X   ) H.C.B.G.D.S./.U w _.L.D.D.U.B.C.B.D.D.D.C.C.C.B.V.N.C.F.G.N.N.U.B.C.B./.6 CX  @Xx b 0XeXz k . OXa   iX                                  ",
"        9X  O     0./.C.N.D.G.J.).e J ^.H.G.D.D.N.C.C.C.B.G.C.N.G.C.V.F.C.C.B.C.C.C.B.D.C./.7 jX  5Xx b i.eXh 3 @ OX' X p.                                  ",
"      y.      X   L _.D.C.G.B.J._.8 e ;.L.V.G.D.B.B.B.C.D.C.C.C.V.B.F.V.C.N.C.D.V.V.V.B.D./.L yXX 4Xx x u.yXj > . e.n   v.                                  ",
"    n.  X * ( &     #.H.G.B.G.J._.8 e $.K.C.D.D.D.B.V.C.B.D.B.B.C.C.V.V.C.C.D.B.N.C.V.C.G.H.K OX  4Xx x 4.eXj - 3 9.k   gX                                  ",
"  uX    w ~.+.u .   * [.J.Z.N.S._.8 8 @.K.N.V.B.C.C.C.B.D.G.C.C.V.C.N.F.D.F.G.B.G.N.G.B.G.H.&.OX  4XG n G qXk o * 9.r X aX                                  ",
"cX    * './.W +.  X   L (.B.G.L._.8 - +.m.F.C.B.C.D.V.F.D.B.C.C.B.C.C.D.D.D.D.C.C.B.G.G.N.L._ OX  4X5 j G eXj - 0 *.`   jX                                  ",
"5.  o e.oXS.$.+.{ o .   ~.J.F.K._.V X ) @.H.G.B.C.C.V.F.D.B.C.C.B.B.C.D.D.D.C.C.F.D.G.D.S.m.e OX  fX+   3 1.;   - 4.` X aX                                  ",
"6X  . %X}.B.%.o.+.y   . w /.S.G.H.Y X H o.m.N.C.C.B.F.D.G.D.C.B.C.D.C.B.D.D.C.B.D.D.D.S.S.X.6 @X  y.+   < < 3 @   . o   MX                                  ",
"cXX 8 $X}.I.m.W O.) . X   [.).F.J.^.  * +.Q F.B.G.V.F.V.D.C.B.B.G.D.C.C.N.C.C.N.N.S.G.S.~ X.& 5X  s   $ z.B S   =.-._ X n dX                                ",
"  9 J 1XXXC.S.~ W  .a X . { /.D.S./.e X _ X.Q S.F.V.G.N.B.N.C.B.D.G.B.C.C.C.M.M.D.S.J.f.R )   fXw.      | B < . h.A.=.H o t.                                ",
"  w.J &XXXB.S.f.! O.] o   & _.K.G./.-.. 0 #.W ~ F.F.V.V.V.V.C.G.B.B.D.B.B.G.M.C.C.J.A.E +.i   sX5     . @ @ @ t [.! O.+.&   mX                              ",
"  pX$ $X>XB.B.D.! E +.u .   #.K.S.K.].# # ] X.! ~ S.G.F.V.V.C.C.I.N.B.D.F.N.C.Z.F.P.Q #.&.&   CX4X    . 3 1 . 0 ..X.W &.-   MX                              ",
"    & '.<XT.C.B.%.Q X...& X J /.S.S.^.w X e X.W R ! m.F.N.G.G.D.B.N.B.B.S.S.C.Z.f.Q Y +.N   g VX5.  o t 0.B D .   u  . .  g                                 ",
"    9.) <XR.C.C.F.Q W &.u   * '.H.S.A.o.H # / +.X.O.W ^ A.S.S.S.G.C.N.B.L.S.G.b.! E +.} X X w.VX;   4.M g.A 2 .   + H i   5.                                ",
"    jXq <XW.Y.V.G.A.! R =.1 o &./.K.%.O. .6 * .. .R R T ! f.S.J.D.S.S.F.L.P.~ T E #.*.*   c BXnX+ t 0.2 j.C 2 . o X       2X                                ",
"      6 `.=XG.B.D.K.^ R X./   & ^.K.:.#.X.) X i &.X.R E ! Q E ~ f.f.%.m.~ ! W X.X.*.0   ,     u.X 9.P 2 c.Z < . 9.k X     NX                                ",
"      #XI <X{.C.G.S.F.! R *.*   e [.:.R R o.{ X L =.Y E E E E o.E E T Q T E W +._ 0   ; nX    k * +XP q c.C < . &.*.X +                                     ",
"      MX* %X>XZ.C.F.S.A.R +.[ X X _ ;.R O.X.#.K & K +.R R E o.X.X.R R R X.+.+.H o   = nX    NX  } '.e B c.C < . &.)   , NX                                  ",
"        9.} >XR.I.B.D.J.$.+.*.&   o -.o.O.R W X.J 4 I } X.E R W O.R X.+.+.{ & .   c BX      9X. h.(.q B c.Z < . &./   2X                                    ",
"        jX1 .X>XB.C.B.D.m.E +.N     4 &.o.R E W  .I & J #.X. .X.o.+.+.) 6 X     X n ` u.dX  3.6 /.(.7 B c.C < @ *.e   bX                                    ",
"          ( U $XW.Z.Z.B.J.! R +.o X X i +.X.O.X.W  .) 8 & 8 y y y 0 X   . X n $   X   + X     i `./.@ B x.A @ . 9.4 4.                                      ",
"          jX$ ^.=XT.N.B.N.~ W +.(     . / X.X.X.W O.R #._ 8 &     X X o 0 [ 4..   [ _ N 6 6 9 . ;.'.@ D x.Z @   9.o pX                                      ",
"            j 7 .XXXC.V.F.%.! X.+.4     & &.X.X.X.O.R R O.X.+.=.&.+.#.=...*.3 . * ].`./._.'.w o o e.@ S g.C . X ' 4                                         ",
"            iX+ J .X}.V.M.b.T o.X. .&   X y #.#.+.o.R R W O.O.T R O.R  . ./   X ) /.S.V.F.H.~.4   9 @ B h.A @ - 5 n.                                        ",
"              w.. } .XR.V.b.! X.X.+.) o X   { } R W R T E X.R R W W W #./ o o w /.F.V.V.C.G./.A.o . @ D g.B @ ;   mX                                        ",
"              bX. . } `.K.b.T R o.X.&._ %   o ] +.#.X.X.o.X.+.+.#. . .U o - +.'.R.M.M.M.C.N.S./.~._ < B l.B . . 5.                                          ",
"                rX  X / ].@.#.R X.X.#...a j   - [ *.*.9.*.i #   X X X 1 R /.F.>X:XW.!.|.:X|.T.B.R.(.V B d.V . + dX                                          ",
"                  <.X   y *. .+.X. . .4 X     X . . X X   o   X o k [ &.b.S.N.T.;X;X:X|.T.W.>X:X X XE B | V   m                                             ",
"                    r   X X y ( [ { X X     X k y e y e y -   O r 4.*.+.#.Q K.L.C.V.Y.R.M.M.R.G.m.A.-.B | V + 2X                                            ",
"                      l X   X . &     +       - *...&.] { &     X   * N &.+.W Q b.P.P.m.m.^ ~ ! ! $.;.@ $ @   zX                                            ",
"                        5X,     ` G <.g     +   ..#.&.i       X         & N &.X.E W T W E R W R T E X._ u &   jX                                            ",
"                                      2X+ + +   / &.u .         O ; + . X   # / ) +.+.#.+.X.X.#.} o.+.&.[ o % BX                                            ",
"                                      kX  + +   ' y X     s f c X , f ;     X   . i [ ] ..&.&...*.{ i o X   uX                                              ",
"                                        2X      &     + d c c b f > c c z 3 +     X X # * * * & X     r 7.cX                                                ",
"                                          r.    o : : z b c c : d f c c c 2.1.  5Xt.3 X       r u.6XlX                                                      ",
"                                            i.  % c c b c c ;     d b b 6.y.y.,                                                                             ",
"                                              w.  f x c f O     5 j 2.w.y.r.<.n.                                                                            ",
"                                              bX; +           O : = w.r.5.<.9X                                                                              ",
"                                                0X>.<.% = c           G uX                                                                                  ",
"                                                      MXwX<.<.,.n.aX                                                                                        ",
"                                                                                                                                                            ",
"                                                                                                                                                            "
};
